<svg width="1440" height="385" viewBox="0 0 1440 385" fill="none" xmlns="http://www.w3.org/2000/svg">
<rect width="1440" height="385" fill="#FBAA17"/>
<mask id="mask0" mask-type="alpha" maskUnits="userSpaceOnUse" x="0" y="0" width="1440" height="385">
<rect width="1440" height="385" rx="42" fill="#D4461F"/>
</mask>
<g mask="url(#mask0)">
<path d="M1084.13 -7.26416C1076.42 20.1189 1079.91 75.9519 1155.57 80.2194C1250.14 85.5538 1384.85 69.0173 1371.92 154.367C1361.58 222.647 1413.88 239.717 1441.32 239.717" stroke="#F9E2AE" stroke-width="4"/>
<path d="M802.606 -13.4905C789.444 31.7261 795.405 123.921 924.546 130.968C1085.97 139.776 1315.92 112.47 1293.85 253.405C1276.2 366.153 1365.47 394.34 1412.31 394.34" stroke="#F9E2AE" stroke-width="4"/>
<path d="M408.296 -32.6595C390.278 37.6099 404.18 179.852 603.927 186.666C853.61 195.183 1207.24 145.747 1180.36 364.171C1158.85 538.91 1298.11 579.64 1370.43 578.163" stroke="#F9E2AE" stroke-width="4"/>
</g>
</svg>
