<?xml version="1.0" standalone="no"?>
<!DOCTYPE svg PUBLIC "-//W3C//DTD SVG 20010904//EN"
 "http://www.w3.org/TR/2001/REC-SVG-20010904/DTD/svg10.dtd">
<svg version="1.0" xmlns="http://www.w3.org/2000/svg"
 width="4167.000000pt" height="4167.000000pt" viewBox="0 0 4167.000000 4167.000000"
 preserveAspectRatio="xMidYMid meet">

<g transform="translate(0.000000,4167.000000) scale(0.100000,-0.100000)"
fill="#000000" stroke="none">
<path d="M10000 33944 c-4601 -1745 -8384 -3181 -8408 -3189 l-42 -17 0 -2303
0 -2303 42 -16 c24 -9 3794 -1420 8378 -3135 l8335 -3118 3 2146 c1 1288 -2
2147 -7 2150 -5 4 -2633 965 -5840 2136 -3207 1171 -5831 2132 -5831 2135 0 3
2637 979 5861 2170 3223 1191 5865 2167 5870 2170 5 4 8 835 7 2176 l-3 2171
-8365 -3173z"/>
<path d="M22850 34971 l0 -2148 93 -35 c50 -19 2678 -979 5840 -2134 3161
-1154 5747 -2101 5747 -2104 0 -3 -2637 -979 -5861 -2170 -3223 -1191 -5865
-2167 -5870 -2170 -5 -4 -8 -840 -7 -2176 l3 -2171 8365 3173 c4601 1745 8384
3181 8408 3189 l42 17 0 2303 c0 2184 -1 2303 -17 2310 -10 3 -3751 1403
-8313 3110 -4562 1707 -8325 3115 -8362 3129 l-68 25 0 -2148z"/>
<path d="M6644 21777 c12 -1179 48 -8618 43 -8623 -4 -5 -604 -43 -679 -44
l-28 0 0 -3986 0 -3986 728 6 c400 3 1296 9 1991 12 l1263 6 -6 1307 c-3 718
-9 2524 -12 4014 l-6 2707 -313 0 -313 0 -6 1328 c-3 730 -9 2570 -12 4089 -5
2032 -9 2763 -18 2766 -6 3 -576 233 -1266 512 -690 279 -1281 518 -1313 531
l-59 23 6 -662z"/>
<path d="M33050 21774 c-993 -365 -1874 -689 -1957 -720 l-153 -56 -2 -2701
-3 -2701 -4912 -1984 -4913 -1984 -4517 1717 c-2485 945 -4521 1719 -4525
1722 -7 4 1 -4307 7 -4315 2 -2 2035 -781 4519 -1732 l4516 -1728 6881 2768
c3784 1522 6882 2770 6884 2772 4 4 -13 8512 -18 9279 l-2 326 -1805 -663z"/>
</g>
</svg>
